# This file uses centimeters as units for non-parametric coordinates.

mtllib Caminho.mtl
g default
v -43.711853 103.579442 35.465128
v 44.814596 103.579442 35.465128
v 47.293731 103.579442 35.465128
v -43.711853 103.579442 31.494329
v 44.814596 103.579442 31.494329
v 47.293731 103.579442 31.494329
v -43.711853 103.579442 27.523533
v 44.814596 103.579442 27.523533
v 47.293731 103.579442 27.523533
v 35.561535 103.579442 35.465128
v 35.561535 103.579442 31.494329
v 35.561535 103.579442 27.523533
v 35.561535 102.884783 -14.707870
v 35.561535 103.579442 -16.939421
v 44.814596 102.884783 -14.707870
v 44.814596 103.579442 -16.939421
v 35.561535 116.044438 -27.824468
v 35.561535 118.250957 -30.056186
v 44.814596 116.044438 -27.824468
v 44.814596 118.250957 -30.056186
v 35.561535 118.250957 -46.491213
v 44.814596 118.250957 -46.491213
v 35.561535 118.250957 -42.803082
v 44.814596 118.250957 -42.803082
v 35.561535 118.250957 -35.012024
v 44.814596 118.250957 -35.012024
v -13.088073 118.250957 -35.012024
v -13.088073 118.250957 -42.803082
vt 0.000000 0.000000
vt 0.500000 0.000000
vt 1.000000 0.000000
vt 0.000000 0.500000
vt 0.500000 0.500000
vt 1.000000 0.500000
vt 0.000000 1.000000
vt 0.500000 1.000000
vt 1.000000 1.000000
vt 0.444916 0.000000
vt 0.444916 0.500000
vt 0.444916 1.000000
vt 0.444916 1.000000
vt 0.444916 0.500000
vt 0.500000 0.500000
vt 0.500000 1.000000
vt 0.444916 1.000000
vt 0.444916 0.500000
vt 0.500000 0.500000
vt 0.500000 1.000000
vt 0.000000 0.000000
vt 1.000000 0.000000
vt 1.000000 1.000000
vt 0.000000 1.000000
vt 0.000000 0.666667
vt 1.000000 0.666667
vt 0.000000 0.333333
vt 1.000000 0.333333
vt 0.000000 0.000000
vt 1.000000 0.000000
vt 1.000000 1.000000
vt 0.000000 1.000000
vn 0.000000 1.000000 0.000000
vn 0.000000 1.000000 0.000000
vn 0.000000 1.000000 0.000000
vn 0.000000 1.000000 0.000000
vn 0.000000 1.000000 0.000000
vn 0.000000 1.000000 0.000000
vn 0.000000 1.000000 0.000000
vn 0.000000 1.000000 0.000000
vn 0.000000 1.000000 0.000000
vn 0.000000 1.000000 0.000000
vn 0.000000 1.000000 0.000000
vn 0.000000 1.000000 0.000000
vn 0.000000 1.000000 0.000000
vn 0.000000 1.000000 0.000000
vn 0.000000 1.000000 0.000000
vn 0.000000 1.000000 0.000000
vn 0.000000 1.000000 0.000000
vn 0.000000 1.000000 0.000000
vn 0.000000 1.000000 0.000000
vn 0.000000 1.000000 0.000000
vn 0.000000 0.711110 0.703081
vn 0.000000 0.711110 0.703081
vn 0.000000 0.711110 0.703081
vn 0.000000 0.711110 0.703081
vn 1.000000 0.000000 0.000000
vn 1.000000 0.000000 0.000000
vn 1.000000 0.000000 0.000000
vn 1.000000 0.000000 0.000000
vn 0.000000 0.999887 -0.015033
vn 0.000000 0.999887 -0.015033
vn 0.000000 0.999887 -0.015033
vn 0.000000 0.999887 -0.015033
vn -1.000000 0.000014 0.000000
vn -1.000000 0.000014 0.000000
vn -1.000000 0.000014 0.000000
vn -1.000000 0.000014 0.000000
vn 0.000000 -1.000000 0.000000
vn 0.000000 -1.000000 0.000000
vn 0.000000 -1.000000 0.000000
vn 0.000000 -1.000000 0.000000
vn -1.000000 0.000005 0.000000
vn -1.000000 0.000005 0.000000
vn -1.000000 0.000005 0.000000
vn -1.000000 0.000005 0.000000
vn 0.000000 0.705947 0.708265
vn 0.000000 0.705947 0.708265
vn 0.000000 0.705947 0.708265
vn 0.000000 0.705947 0.708265
vn 1.000000 0.000000 0.000000
vn 1.000000 0.000000 0.000000
vn 1.000000 0.000000 0.000000
vn 1.000000 0.000000 0.000000
vn 0.000000 -0.666502 -0.745503
vn 0.000000 -0.666502 -0.745503
vn 0.000000 -0.666502 -0.745503
vn 0.000000 -0.666502 -0.745503
vn 0.000000 1.000000 0.000000
vn 0.000000 1.000000 0.000000
vn 0.000000 1.000000 0.000000
vn 0.000000 1.000000 0.000000
vn 0.000000 1.000000 0.000000
vn 0.000000 1.000000 0.000000
vn 0.000000 1.000000 0.000000
vn 0.000000 1.000000 0.000000
vn 0.000000 1.000000 0.000000
vn 0.000000 1.000000 0.000000
vn 0.000000 1.000000 0.000000
vn 0.000000 1.000000 0.000000
vn 0.000000 1.000000 0.000000
vn 0.000000 1.000000 0.000000
vn 0.000000 1.000000 0.000000
vn 0.000000 1.000000 0.000000
s off
g initialShadingGroup pPlane1
f 1/1/1 10/10/2 11/11/3 4/4/4
f 2/2/5 3/3/6 6/6/7 5/5/8
f 4/4/9 11/11/10 12/12/11 7/7/12
f 5/5/13 6/6/14 9/9/15 8/8/16
f 10/10/17 2/2/18 5/5/19 11/11/20
f 18/17/21 17/18/22 19/19/23 20/20/24
f 12/12/25 11/11/26 13/14/27 14/13/28
f 11/11/29 5/5/30 15/15/31 13/14/32
f 5/5/33 8/8/34 16/16/35 15/15/36
f 8/8/37 12/12/38 14/13/39 16/16/40
f 14/13/41 13/14/42 17/18/43 18/17/44
f 13/14/45 15/15/46 19/19/47 17/18/48
f 15/15/49 16/16/50 20/20/51 19/19/52
f 16/16/53 14/13/54 18/17/55 20/20/56
f 23/25/57 24/26/58 22/23/59 21/24/60
f 25/27/61 26/28/62 24/26/63 23/25/64
f 18/21/65 20/22/66 26/28/67 25/27/68
f 25/29/69 23/30/70 28/31/71 27/32/72
